<mxfile host="app.diagrams.net" modified="2023-08-18T05:10:35.599Z" agent="Mozilla/5.0 (Windows NT 10.0; Win64; x64) AppleWebKit/537.36 (KHTML, like Gecko) Chrome/115.0.0.0 Safari/537.36" version="21.6.8" etag="pBJrHTZa9wljAO046eOV" type="github">
  <diagram name="第 1 页" id="xcC3YHG3IHAx-FfvrVi1">
    <mxGraphModel>
      <root>
        <mxCell id="0" />
        <mxCell id="1" parent="0" />
      </root>
    </mxGraphModel>
  </diagram>
</mxfile>
